<svg id="Ebene_1" data-name="Ebene 1" xmlns="http://www.w3.org/2000/svg" xmlns:xlink="http://www.w3.org/1999/xlink" viewBox="0 0 890 150">
  <defs>
    <style>
      .cls-1 {
        fill: none;
      }

      .cls-2 {
        fill: #444;
      }

      .cls-3 {
        clip-path: url(#clip-path);
      }

      .cls-4 {
        fill: #fff;
      }
    </style>
    <clipPath id="clip-path">
      <rect class="cls-1" width="890" height="150"/>
    </clipPath>
  </defs>
  <title>logo</title>
  <rect class="cls-2" x="450" width="440" height="80"/>
  <g class="cls-3">
    <path class="cls-4" d="M843.07,54.26A19.15,19.15,0,0,0,849,58.4a18.79,18.79,0,0,0,8,1.6,17.34,17.34,0,0,0,5.38-.78,13.15,13.15,0,0,0,4.13-2.15,9.34,9.34,0,0,0,2.65-3.25,10,10,0,0,0,.21-7.89,8.65,8.65,0,0,0-1.93-2.76,13.2,13.2,0,0,0-2.82-2,30,30,0,0,0-3.39-1.57L855.26,37q-1.19-.46-2.47-1.07a13.25,13.25,0,0,1-2.38-1.45,7.3,7.3,0,0,1-1.81-2,5.33,5.33,0,0,1-.71-2.84,5.88,5.88,0,0,1,2.53-5,11,11,0,0,1,6.69-1.86,14,14,0,0,1,5.62,1.07A14.26,14.26,0,0,1,867,26.75l1.61-1.8a17.26,17.26,0,0,0-4.85-3.22,16.87,16.87,0,0,0-11.44-.67,12.08,12.08,0,0,0-3.8,1.94,9,9,0,0,0-2.5,3,8.09,8.09,0,0,0-.89,3.8,7.63,7.63,0,0,0,.83,3.68,10,10,0,0,0,2.08,2.67A12.39,12.39,0,0,0,850.8,38a29.69,29.69,0,0,0,2.85,1.28l5.95,2.61q1.54.64,2.94,1.31A10.9,10.9,0,0,1,865,44.77a7,7,0,0,1,1.66,2.12,6.57,6.57,0,0,1,.62,3,6.65,6.65,0,0,1-2.76,5.54,12.18,12.18,0,0,1-7.58,2.12,16.17,16.17,0,0,1-6.72-1.39,16.82,16.82,0,0,1-5.35-3.77ZM814,59.3H837V57H826.86V23.39H837V21.07H814v2.32h10.11V57H814Zm-32,0h2.62V35.63q0-2.79-.12-5.45t-.24-5.46h.12l4.22,7.54,15.28,27h2.85V21.07h-2.61v23.5q0,2.79.12,5.54l.24,5.54h-.12L800.1,48.1l-15.28-27H782Zm-22,0h2.73V23.39h13.61V21.07h-30v2.32h13.61Zm-44.33,0h2.73V40.16h19.62V59.3h2.73V21.07h-2.73V37.83H718.33V21.07h-2.73ZM682.94,48.37a18.75,18.75,0,0,0,3.39,6.27,14.76,14.76,0,0,0,5.2,4A15.76,15.76,0,0,0,698.19,60a14,14,0,0,0,6.57-1.45,17.66,17.66,0,0,0,5-4l-1.61-1.68a15.29,15.29,0,0,1-4.46,3.54,11.8,11.8,0,0,1-5.35,1.16,12.83,12.83,0,0,1-5.71-1.25,12.38,12.38,0,0,1-4.34-3.51,16.54,16.54,0,0,1-2.76-5.48,24.75,24.75,0,0,1-1-7.22,24.46,24.46,0,0,1,1-7.19,15.94,15.94,0,0,1,2.79-5.43,12.42,12.42,0,0,1,4.4-3.45,13.44,13.44,0,0,1,5.8-1.22,10.6,10.6,0,0,1,4.82,1.07A12.19,12.19,0,0,1,707,26.69L708.71,25a15.21,15.21,0,0,0-4.19-3.19,12.41,12.41,0,0,0-6-1.39,17,17,0,0,0-6.87,1.36,14.56,14.56,0,0,0-5.32,3.95,18.53,18.53,0,0,0-3.42,6.24,25.77,25.77,0,0,0-1.22,8.18,26.23,26.23,0,0,0,1.22,8.27M670.27,16.68a2,2,0,0,0,.59-1.54,2.09,2.09,0,0,0-.59-1.57,2.12,2.12,0,0,0-1.55-.58,2.22,2.22,0,0,0-1.58.58,2,2,0,0,0-.62,1.57,1.94,1.94,0,0,0,.63,1.54,2.29,2.29,0,0,0,1.58.55,2.18,2.18,0,0,0,1.55-.55m-9.36,0a1.94,1.94,0,0,0,.63-1.54,2,2,0,0,0-.62-1.57,2.22,2.22,0,0,0-1.58-.58,2.12,2.12,0,0,0-1.55.58,2.09,2.09,0,0,0-.59,1.57,2,2,0,0,0,.59,1.54,2.18,2.18,0,0,0,1.55.55,2.29,2.29,0,0,0,1.58-.55M676.27,59.3h2.91L665.39,21.07h-2.74L648.87,59.3h2.73l4.64-13.11h15.52Zm-19.2-15.38,2.5-7.14q1.19-3.42,2.26-6.56t2.08-6.67h.24q1,3.54,2.08,6.67t2.26,6.56l2.5,7.14ZM622.83,57V23.33h6a17.2,17.2,0,0,1,6.78,1.22,12.31,12.31,0,0,1,4.7,3.42A14.35,14.35,0,0,1,643,33.25a24.31,24.31,0,0,1,.89,6.79,24.83,24.83,0,0,1-.89,6.88,14.9,14.9,0,0,1-2.73,5.37,12.3,12.3,0,0,1-4.7,3.51A16.83,16.83,0,0,1,628.84,57ZM620.1,59.3h9a20.44,20.44,0,0,0,7.79-1.36,14.48,14.48,0,0,0,5.53-3.89A16.24,16.24,0,0,0,645.72,48,27.49,27.49,0,0,0,646.79,40a26.61,26.61,0,0,0-1.07-7.83,16,16,0,0,0-3.27-6,14.38,14.38,0,0,0-5.53-3.83,21,21,0,0,0-7.85-1.33h-9Zm-30.24,0h23.78V57h-21V40.16h17.24V37.83H592.59V23.39H613V21.07H589.86Zm-35-10.94a18.69,18.69,0,0,0,3.33,6.27,14.56,14.56,0,0,0,5.14,4A15.71,15.71,0,0,0,570,60a17.08,17.08,0,0,0,6.69-1.22,13.39,13.39,0,0,0,4.67-3.13V40.5H569.67v2.26h9V54.66a9,9,0,0,1-3.63,2.15,15.3,15.3,0,0,1-4.87.75,12.78,12.78,0,0,1-5.74-1.25,12.44,12.44,0,0,1-4.31-3.51,15.73,15.73,0,0,1-2.7-5.48,26.22,26.22,0,0,1-.92-7.22,24.46,24.46,0,0,1,1-7.19,15.94,15.94,0,0,1,2.79-5.43A12.35,12.35,0,0,1,564.74,24a13.64,13.64,0,0,1,5.83-1.22,10.87,10.87,0,0,1,5.23,1.13,13.59,13.59,0,0,1,3.57,2.76L581,25a20.47,20.47,0,0,0-1.75-1.62A12.84,12.84,0,0,0,577,21.85a13.44,13.44,0,0,0-2.85-1.07,14.18,14.18,0,0,0-3.54-.41,16.92,16.92,0,0,0-6.9,1.36,14.89,14.89,0,0,0-5.32,3.95,18.24,18.24,0,0,0-3.45,6.24,25.77,25.77,0,0,0-1.22,8.18,26.84,26.84,0,0,0,1.19,8.27M500.24,59.3h2.5V32.55q0-1.92-.12-4.26T502.38,24h.12l2.38,6.85,6.84,18h1.9l6.78-18L522.65,24h.18q-.12,2-.21,4.32t-.09,4.26V59.3h2.56V21.07h-3.51L515.1,38.88l-2.26,6.79h-.24l-2.32-6.79-6.54-17.81h-3.51ZM470,59.3h22.95V57H482.84V23.39h10.11V21.07H470v2.32h10.11V57H470Z"/>
  </g>
  <rect class="cls-2" width="440" height="80"/>
  <g class="cls-3">
    <path class="cls-4" d="M391.55,59.29h9.72V48.13a55.58,55.58,0,0,0-.53-7.48q-.53-3.92-.89-7.24h.24L403.23,42l6.46,17.27H420V20.71h-9.72V31.87q0,1.78.15,3.71t.39,3.86q.24,1.93.47,3.77t.41,3.38h-.24l-3.14-8.67-6.46-17.21H391.55Zm-32.73,0h26.67V50.74H369V43.86h13.52V35.31H369V29.26H384.9V20.71H358.82ZM323.31,48.93a17.4,17.4,0,0,0,3.88,6.17,15.75,15.75,0,0,0,5.75,3.68A20.11,20.11,0,0,0,340,60a15.91,15.91,0,0,0,3.62-.42A22.58,22.58,0,0,0,347,58.52,17.79,17.79,0,0,0,349.89,57a19.4,19.4,0,0,0,2.34-1.75V36.85H338.36v8.31h4.8V50.5A3.29,3.29,0,0,1,342,51a5.87,5.87,0,0,1-1.42.18,7,7,0,0,1-6.16-2.91q-2-2.91-2-8.37a17.07,17.07,0,0,1,.59-4.69,11,11,0,0,1,1.63-3.5,7.5,7.5,0,0,1,2.43-2.2,6.08,6.08,0,0,1,3-.77,7.76,7.76,0,0,1,3.41.65,9.47,9.47,0,0,1,2.52,1.84L351.52,25a18.9,18.9,0,0,0-4.74-3.47A14.2,14.2,0,0,0,340,20,18.72,18.72,0,0,0,333,21.33a16.29,16.29,0,0,0-5.78,3.92,18.54,18.54,0,0,0-3.88,6.38,24.58,24.58,0,0,0-1.42,8.67,24,24,0,0,0,1.42,8.64M310.84,59.29h10.79L310,20.71H297.68L286.06,59.29H296.5l1.9-8.19h10.55ZM300.23,43.2l.59-2.67q.65-2.79,1.33-6t1.33-6.2h.24q.71,2.91,1.42,6.17t1.36,6.05l.59,2.67ZM254.36,59.29h10.19V44h8.3V59.29H283V20.71h-10.2V35.07h-8.3V20.71H254.36Zm-34.89,0h9.72V48.13a55.41,55.41,0,0,0-.53-7.48q-.53-3.92-.89-7.24H228L231.15,42l6.46,17.27h10.31V20.71H238.2V31.87q0,1.78.15,3.71t.39,3.86q.24,1.93.47,3.77t.42,3.38h-.24l-3.14-8.67-6.46-17.21H219.47Zm-32.73,0h26.67V50.74H196.93V43.86h13.51V35.31H196.93V29.26h15.89V20.71H186.74Zm-25.74,0h10.2v-30h11.08V20.71H149.92v8.55H161Zm-43.5,0H127.7V44H136V59.29h10.19V20.71H136V35.07h-8.3V20.71H117.51ZM84.29,48.93a17.53,17.53,0,0,0,4.09,6.17,16.73,16.73,0,0,0,6,3.68A21,21,0,0,0,101.51,60a16,16,0,0,0,6.7-1.42,16.53,16.53,0,0,0,5.63-4.27l-5.57-6.17a11.23,11.23,0,0,1-2.76,2.22,6.76,6.76,0,0,1-3.41.86,8,8,0,0,1-6.4-2.91q-2.49-2.91-2.49-8.37a15.6,15.6,0,0,1,.65-4.69,10.78,10.78,0,0,1,1.78-3.5,7.86,7.86,0,0,1,2.67-2.2,7.32,7.32,0,0,1,3.32-.77,8,8,0,0,1,3.38.65,11.72,11.72,0,0,1,2.79,1.84L113.36,25a21.59,21.59,0,0,0-5-3.47,14.52,14.52,0,0,0-6.7-1.51,19.73,19.73,0,0,0-7.35,1.36,17.26,17.26,0,0,0-6,3.95,18.56,18.56,0,0,0-4,6.35,23.47,23.47,0,0,0-1.48,8.64,22.76,22.76,0,0,0,1.51,8.64m-33,10.36H79V50.74H70.26V29.26H79V20.71H51.29v8.55h8.77V50.74H51.29ZM20,59.29H46.61V50.74H30.19v-30H20Z"/>
  </g>
  <rect class="cls-4" x="450" y="90" width="440" height="60"/>
  <g class="cls-3">
    <path class="cls-2" d="M780.06,126.28a1.18,1.18,0,0,0,1.66,0,1.44,1.44,0,0,0,0-1.93,1.21,1.21,0,0,0-1.66,0,1.44,1.44,0,0,0,0,1.93m-11.15.1h1l4.3-13.18h-.92l-2.44,7.7q-.38,1.2-.69,2.21t-.71,2.21h-.08q-.2-.6-.37-1.14l-.33-1.07-.33-1.07q-.17-.54-.35-1.14l-2.44-7.7h-1Zm-11.85-.1a1.18,1.18,0,0,0,1.66,0,1.44,1.44,0,0,0,0-1.93,1.21,1.21,0,0,0-1.66,0,1.44,1.44,0,0,0,0,1.93M742.85,121a4.29,4.29,0,0,1,1.34-2.7,3.62,3.62,0,0,1,1.18-.73,3.86,3.86,0,0,1,1.38-.25,3.37,3.37,0,0,1,2.49.93,3.73,3.73,0,0,1,.93,2.75Zm-.52,2.73a4.62,4.62,0,0,0,2.7,2.57,6.2,6.2,0,0,0,4.08,0,9.49,9.49,0,0,0,1.52-.77l-.36-.68a6.83,6.83,0,0,1-1.46.75,5,5,0,0,1-1.74.29,4.53,4.53,0,0,1-1.71-.31,3.82,3.82,0,0,1-2.18-2.18,4.7,4.7,0,0,1-.33-1.67H751a1.63,1.63,0,0,0,0-.36V121a5.39,5.39,0,0,0-.3-1.86,3.71,3.71,0,0,0-2.22-2.27,4.88,4.88,0,0,0-1.78-.31,4.69,4.69,0,0,0-1.78.35,4.76,4.76,0,0,0-1.53,1,4.91,4.91,0,0,0-1.08,1.59,5.72,5.72,0,0,0,0,4.23m-20.09-1.28a2.52,2.52,0,0,1-.85-.54,2.56,2.56,0,0,1-.57-.84,2.91,2.91,0,0,1,0-2.17,2.66,2.66,0,0,1,.57-.86,2.55,2.55,0,0,1,.85-.56,2.76,2.76,0,0,1,1-.2,2.7,2.7,0,0,1,1,.2,2.65,2.65,0,0,1,.86.56,2.58,2.58,0,0,1,.58.86,2.91,2.91,0,0,1,0,2.17,2.48,2.48,0,0,1-.58.84,2.61,2.61,0,0,1-.86.54,2.81,2.81,0,0,1-1,.19,2.87,2.87,0,0,1-1-.19m-2.06,7.81a6,6,0,0,0,3.37.76,7.33,7.33,0,0,0,2.1-.28,5.55,5.55,0,0,0,1.6-.74,3.54,3.54,0,0,0,1-1,2.3,2.3,0,0,0,.36-1.21,1.78,1.78,0,0,0-.83-1.66,5.39,5.39,0,0,0-2.67-.5h-2.38a3.46,3.46,0,0,1-1.62-.32,1.07,1.07,0,0,1-.6-1,1.19,1.19,0,0,1,.26-.74,2.5,2.5,0,0,1,.68-.6,4.12,4.12,0,0,0,.91.33,4,4,0,0,0,.91.11,3.75,3.75,0,0,0,1.38-.25,3.56,3.56,0,0,0,1.12-.69,3.19,3.19,0,0,0,1-2.4,2.86,2.86,0,0,0-.34-1.4,4.32,4.32,0,0,0-.8-1.06h2.92v-.74h-4a3.42,3.42,0,0,0-1.32-.24,3.73,3.73,0,0,0-2.53,1,3.24,3.24,0,0,0-.77,1.08,3.35,3.35,0,0,0-.28,1.37,3,3,0,0,0,.34,1.49,3.44,3.44,0,0,0,.8,1v.08a3,3,0,0,0-.87.88,1.82,1.82,0,0,0-.29.94,1.47,1.47,0,0,0,.32,1,2.19,2.19,0,0,0,.68.56V126a4,4,0,0,0-1.2,1.08,2.06,2.06,0,0,0-.42,1.18,2.34,2.34,0,0,0,1.11,2m.07-3a3.19,3.19,0,0,1,1.22-1,4.06,4.06,0,0,0,.72.14,7,7,0,0,0,.74,0h2.28a4.51,4.51,0,0,1,1.88.3,1.13,1.13,0,0,1,.62,1.12,1.61,1.61,0,0,1-.29.9,2.69,2.69,0,0,1-.83.78,5,5,0,0,1-1.33.56,6.58,6.58,0,0,1-1.77.22,5,5,0,0,1-2.7-.58,1.71,1.71,0,0,1-.88-1.46,1.89,1.89,0,0,1,.34-1M708,126.38h.9V119.5q.52-.54,1-1a6.28,6.28,0,0,1,.88-.68,3.49,3.49,0,0,1,.87-.4,3.36,3.36,0,0,1,1-.13,2.51,2.51,0,0,1,2.07.78,3.78,3.78,0,0,1,.63,2.4v5.86h.9v-6q0-3.86-3.46-3.86a3.62,3.62,0,0,0-2,.59,9.73,9.73,0,0,0-1.73,1.49h-.08l-.1-1.84H708Zm-3.72-9.6h-.88v6.86q-.5.56-.94,1a5.65,5.65,0,0,1-.88.68,3.61,3.61,0,0,1-.9.4,3.5,3.5,0,0,1-1,.13,2.51,2.51,0,0,1-2.07-.78,3.78,3.78,0,0,1-.63-2.4v-5.86h-.88v6a4.3,4.3,0,0,0,.84,2.91,3.3,3.3,0,0,0,2.6,1,3.78,3.78,0,0,0,2.08-.59,7.66,7.66,0,0,0,1.7-1.51h.08l.1,1.86h.74Zm-18.82,3.13a4.12,4.12,0,0,1,.78-1.36,3.78,3.78,0,0,1,1.16-.9,3.13,3.13,0,0,1,1.42-.33,3.72,3.72,0,0,1,1.51.33,5.83,5.83,0,0,1,1.57,1.09v5.34a6.91,6.91,0,0,1-1.63,1.3,3.41,3.41,0,0,1-1.67.46,3.26,3.26,0,0,1-1.44-.31,3.08,3.08,0,0,1-1.08-.86,3.85,3.85,0,0,1-.67-1.33,6.15,6.15,0,0,1-.23-1.74,5,5,0,0,1,.28-1.69m-.91,3.84a4.54,4.54,0,0,0,.87,1.57,3.64,3.64,0,0,0,1.34,1,4.37,4.37,0,0,0,1.72.33,3.79,3.79,0,0,0,1.9-.5,6.72,6.72,0,0,0,1.52-1.16h0l.1,1.42h.76V112h-.9v4l.06,1.94a7.2,7.2,0,0,0-1.51-1,3.86,3.86,0,0,0-1.69-.36,4.27,4.27,0,0,0-1.71.35,4.37,4.37,0,0,0-1.44,1,4.87,4.87,0,0,0-1,1.6,5.69,5.69,0,0,0-.37,2.1,6.79,6.79,0,0,0,.31,2.15m-11.29-11h3.56v10.72a3.33,3.33,0,0,0,.73,2.39,2.81,2.81,0,0,0,2.11.75,4.1,4.1,0,0,0,1.26-.18q.56-.18,1.14-.42l-.28-.7a4.84,4.84,0,0,1-2,.52q-2.08,0-2.08-2.24V112h-4.44Zm-5.71,1.44a1,1,0,1,0-.67.26.93.93,0,0,0,.67-.26m-5.71,3.34h4.82v8.84h.88v-9.6h-5.7Zm-10.22,8.08v-5.88H654a5.89,5.89,0,0,1,3.12.69,2.32,2.32,0,0,1,1.1,2.11,2.6,2.6,0,0,1-1.12,2.34,5.58,5.58,0,0,1-3.1.74Zm0-6.62v-5h2.12a5.34,5.34,0,0,1,2.75.57,2,2,0,0,1,.93,1.85,2.3,2.3,0,0,1-.88,2,4.92,4.92,0,0,1-2.9.66Zm-.92,7.38h3.56a7.85,7.85,0,0,0,2-.24,4.44,4.44,0,0,0,1.54-.72,3.27,3.27,0,0,0,1-1.2,3.81,3.81,0,0,0,.35-1.68,2.82,2.82,0,0,0-.85-2.17,4.23,4.23,0,0,0-2.31-1v-.08a3.06,3.06,0,0,0,1.76-1.07,2.93,2.93,0,0,0,.58-1.81,2.7,2.7,0,0,0-1.17-2.43,5.71,5.71,0,0,0-3.17-.77h-3.3ZM627.85,121a4.29,4.29,0,0,1,1.34-2.7,3.61,3.61,0,0,1,1.18-.73,3.86,3.86,0,0,1,1.38-.25,3.37,3.37,0,0,1,2.49.93,3.73,3.73,0,0,1,.93,2.75Zm-.52,2.73a4.62,4.62,0,0,0,2.7,2.57,6.2,6.2,0,0,0,4.08,0,9.49,9.49,0,0,0,1.52-.77l-.36-.68a6.85,6.85,0,0,1-1.46.75,5,5,0,0,1-1.74.29,4.53,4.53,0,0,1-1.71-.31,3.82,3.82,0,0,1-2.18-2.18,4.7,4.7,0,0,1-.33-1.67H636a1.7,1.7,0,0,0,0-.36V121a5.39,5.39,0,0,0-.3-1.86,3.71,3.71,0,0,0-2.22-2.27,4.89,4.89,0,0,0-1.78-.31,4.68,4.68,0,0,0-1.78.35,4.73,4.73,0,0,0-1.53,1,4.91,4.91,0,0,0-1.08,1.59,5.73,5.73,0,0,0,0,4.23m-11.58-10.95h3.56v10.72a3.33,3.33,0,0,0,.73,2.39,2.81,2.81,0,0,0,2.11.75,4.1,4.1,0,0,0,1.26-.18q.56-.18,1.14-.42l-.28-.7a4.83,4.83,0,0,1-2,.52q-2.08,0-2.08-2.24V112h-4.44Zm-10.3,10.14a2.67,2.67,0,0,1,1.08-.82,9.16,9.16,0,0,1,2-.62,26.33,26.33,0,0,1,3.07-.42v3.08a6.23,6.23,0,0,1-3.86,1.74,4.17,4.17,0,0,1-1-.11,2.78,2.78,0,0,1-.84-.34,1.78,1.78,0,0,1-.59-.59,1.65,1.65,0,0,1-.22-.88,1.78,1.78,0,0,1,.32-1m-.94,2.26a2.43,2.43,0,0,0,.74.82,3.35,3.35,0,0,0,1.07.48,4.89,4.89,0,0,0,1.25.16,4.83,4.83,0,0,0,2.13-.51,10.4,10.4,0,0,0,1.89-1.17h0l.1,1.44h.74v-6.14a4.83,4.83,0,0,0-.21-1.45,3.19,3.19,0,0,0-.65-1.17,3,3,0,0,0-1.13-.79,4.25,4.25,0,0,0-1.65-.29,5.33,5.33,0,0,0-1.26.15,9.12,9.12,0,0,0-1.16.36,8.3,8.3,0,0,0-1.72.91l.4.66c.2-.13.43-.28.7-.43a7.76,7.76,0,0,1,.88-.43,6.27,6.27,0,0,1,1-.32,4.7,4.7,0,0,1,1.06-.12,3.3,3.3,0,0,1,1.37.25,2.31,2.31,0,0,1,.88.67,2.57,2.57,0,0,1,.47,1,4.66,4.66,0,0,1,.14,1.15,32.09,32.09,0,0,0-3.35.46,9.41,9.41,0,0,0-2.28.72,3.38,3.38,0,0,0-1.31,1,2.58,2.58,0,0,0-.14,2.58m-6-11a1,1,0,1,0-.67.26.93.93,0,0,0,.67-.26m-5.71,3.34h4.82v8.84h.88v-9.6h-5.7Zm-12,8.84h9.08v-.78h-7.74l7.52-8.36v-.46h-8.06v.76h6.72l-7.52,8.36Zm-10.38-6.52a4.23,4.23,0,0,1,.77-1.35,3.36,3.36,0,0,1,1.17-.88,3.76,3.76,0,0,1,3,0,3.35,3.35,0,0,1,1.18.88,4.27,4.27,0,0,1,.77,1.35,5.14,5.14,0,0,1,.28,1.74,5.07,5.07,0,0,1-.28,1.72,4.14,4.14,0,0,1-.77,1.34,3.41,3.41,0,0,1-1.18.87,3.76,3.76,0,0,1-3,0,3.42,3.42,0,0,1-1.17-.87,4.11,4.11,0,0,1-.77-1.34,5,5,0,0,1-.28-1.72,5.11,5.11,0,0,1,.28-1.74m-.85,3.87a4.57,4.57,0,0,0,1,1.57,4.38,4.38,0,0,0,1.49,1,4.88,4.88,0,0,0,3.58,0,4.4,4.4,0,0,0,1.49-1,4.6,4.6,0,0,0,1-1.57,5.74,5.74,0,0,0,.37-2.13,5.9,5.9,0,0,0-.37-2.15,4.57,4.57,0,0,0-1-1.59,4.4,4.4,0,0,0-1.49-1,4.88,4.88,0,0,0-3.58,0,4.38,4.38,0,0,0-1.49,1,4.54,4.54,0,0,0-1,1.59,5.88,5.88,0,0,0-.37,2.15,5.72,5.72,0,0,0,.37,2.13m-11.69.91a6.46,6.46,0,0,0,2,1.43,6.18,6.18,0,0,0,2.68.55,5.7,5.7,0,0,0,1.81-.27,4.4,4.4,0,0,0,1.39-.74,3.19,3.19,0,0,0,1.2-2.53,3.26,3.26,0,0,0-.24-1.31,3,3,0,0,0-.65-1,4.42,4.42,0,0,0-1-.7,10,10,0,0,0-1.14-.54l-2-.88c-.27-.11-.54-.23-.83-.37a4.5,4.5,0,0,1-.8-.5,2.5,2.5,0,0,1-.61-.69,1.87,1.87,0,0,1-.24-1,2,2,0,0,1,.85-1.72,3.65,3.65,0,0,1,2.25-.64,4.59,4.59,0,0,1,1.89.37,4.8,4.8,0,0,1,1.45,1l.54-.62a5.78,5.78,0,0,0-1.63-1.11,5.55,5.55,0,0,0-3.85-.23,4,4,0,0,0-1.28.67,3.08,3.08,0,0,0-.84,1,2.85,2.85,0,0,0-.3,1.31,2.68,2.68,0,0,0,.28,1.27,3.44,3.44,0,0,0,.7.92,4.18,4.18,0,0,0,.92.65,10,10,0,0,0,1,.44l2,.9q.52.22,1,.45a3.62,3.62,0,0,1,.82.54,2.41,2.41,0,0,1,.56.73,2.5,2.5,0,0,1-.72,3,4,4,0,0,1-2.55.73,5.33,5.33,0,0,1-2.26-.48,5.67,5.67,0,0,1-1.8-1.3Z"/>
  </g>
</svg>
